<svg xmlns="http://www.w3.org/2000/svg" width="48" height="48" fill="none" viewBox="0 0 256 256"><path fill="#242938" d="M196 0H60C26.863 0 0 26.863 0 60v136c0 33.137 26.863 60 60 60h136c33.137 0 60-26.863 60-60V60c0-33.137-26.863-60-60-60"/><g clip-path="url(#a)"><path fill="url(#b)" d="m214.187 72.28-6.2 92.067-59.334-120.734 65.534 28.654zm-41.094 119.053-44.826 24.174-44.827-24.174 9.12-20.88h71.427l9.12 20.88zM128.267 89.44l23.493 53.96h-47l23.493-53.96zM48.48 164.333 42.333 72.28l65.547-28.667-59.387 120.734z"/><path fill="url(#c)" d="m214.187 72.28-6.2 92.067-59.334-120.734 65.534 28.654zm-41.094 119.053-44.826 24.174-44.827-24.174 9.12-20.88h71.427l9.12 20.88zM128.267 89.44l23.493 53.96h-47l23.493-53.96zM48.48 164.333 42.333 72.28l65.547-28.667-59.387 120.734z"/></g><defs><linearGradient id="b" x1="60.52" x2="196.293" y1="153.211" y2="88.857" gradientUnits="userSpaceOnUse"><stop stop-color="#E40035"/><stop offset=".24" stop-color="#F60A48"/><stop offset=".35" stop-color="#F20755"/><stop offset=".49" stop-color="#DC087D"/><stop offset=".74" stop-color="#9717E7"/><stop offset="1" stop-color="#6C00F5"/></linearGradient><linearGradient id="c" x1="78.684" x2="166.359" y1="55.02" y2="155.725" gradientUnits="userSpaceOnUse"><stop stop-color="#FF31D9"/><stop offset="1" stop-color="#FF5BE1" stop-opacity="0"/></linearGradient><clipPath id="a"><path fill="#fff" d="M28 28h200v200H28z"/></clipPath></defs></svg>