<svg xmlns="http://www.w3.org/2000/svg" width="48" height="48" fill="none" viewBox="0 0 256 256"><path fill="#242938" d="M196 0H60C26.863 0 0 26.863 0 60v136c0 33.137 26.863 60 60 60h136c33.137 0 60-26.863 60-60V60c0-33.137-26.863-60-60-60"/><path fill="#fff" d="M19.308 133.932v-5.71q4.914 0 6.818-1.961 1.903-1.96 1.903-6.335v-6.278q0-5.256 1.449-8.409 1.477-3.183 4.09-4.801 2.644-1.62 6.25-2.16 3.609-.54 7.899-.54v9.035q-3.353 0-5.114.88-1.733.853-2.358 2.671-.625 1.79-.625 4.545v8.296q0 2.159-.795 4.119-.796 1.932-2.955 3.438-2.16 1.476-6.165 2.358-4.005.852-10.397.852m28.409 35.71q-4.29 0-7.898-.54t-6.25-2.159q-2.614-1.619-4.091-4.801-1.449-3.153-1.449-8.409v-6.307q0-4.375-1.903-6.335t-6.818-1.96v-5.711q6.391 0 10.397.881 4.006.852 6.165 2.358 2.16 1.478 2.955 3.438.795 1.931.795 4.119v8.295q0 2.728.625 4.517.625 1.82 2.358 2.671 1.761.88 5.114.881zm-28.41-30.511v-10.909h10.2v10.909zm66.052 18.693q-4.176 0-7.443-1.449-3.267-1.478-5.171-4.347-1.875-2.897-1.875-7.216 0-3.636 1.335-6.107a10.8 10.8 0 0 1 3.637-3.978q2.3-1.506 5.227-2.272a40 40 0 0 1 6.193-1.08q3.807-.397 6.136-.739 2.33-.37 3.381-1.079 1.05-.71 1.051-2.102v-.171q0-2.699-1.704-4.176-1.677-1.477-4.773-1.477-3.267 0-5.199 1.449-1.932 1.42-2.557 3.579l-11.193-.909q.852-3.978 3.352-6.875 2.5-2.926 6.45-4.489 3.976-1.59 9.204-1.591 3.636 0 6.96.853 3.352.852 5.938 2.642a12.84 12.84 0 0 1 4.119 4.602q1.506 2.784 1.506 6.676V157H98.455v-6.051h-.34a12.3 12.3 0 0 1-2.813 3.608q-1.761 1.534-4.233 2.415-2.472.852-5.71.852m3.466-8.352q2.67 0 4.715-1.052 2.046-1.079 3.21-2.897 1.165-1.819 1.165-4.12v-4.63q-.568.369-1.562.682-.966.284-2.187.539-1.223.228-2.444.426-1.221.17-2.216.313-2.13.313-3.721.994-1.59.682-2.472 1.847-.88 1.136-.88 2.841 0 2.471 1.79 3.778 1.817 1.279 4.602 1.279m30.497 23.892v-60h11.932v7.329h.539q.797-1.761 2.301-3.579 1.534-1.847 3.978-3.069 2.471-1.25 6.136-1.25 4.773 0 8.807 2.5 4.034 2.472 6.449 7.472 2.415 4.971 2.415 12.472 0 7.3-2.358 12.329-2.33 5-6.364 7.585-4.006 2.557-8.977 2.557-3.523 0-5.995-1.165-2.443-1.164-4.005-2.926-1.562-1.79-2.387-3.608h-.369v23.353zm11.846-38.182q0 3.892 1.08 6.79 1.08 2.897 3.125 4.517 2.046 1.59 4.971 1.591 2.955 0 5-1.62 2.046-1.647 3.097-4.545 1.08-2.926 1.08-6.733 0-3.779-1.052-6.648-1.05-2.87-3.096-4.489t-5.029-1.619q-2.954 0-5 1.563-2.016 1.562-3.096 4.431-1.08 2.87-1.08 6.762M169.947 157v-43.636h12.102V157zm6.079-49.261q-2.699 0-4.63-1.79-1.904-1.818-1.904-4.347 0-2.499 1.904-4.29 1.931-1.818 4.63-1.818 2.7 0 4.603 1.819 1.93 1.79 1.931 4.289 0 2.529-1.931 4.347-1.903 1.79-4.603 1.79m59.659 25.681v5.711q-4.886 0-6.818 1.96-1.903 1.96-1.903 6.335v6.307q0 5.256-1.477 8.409-1.45 3.182-4.091 4.801-2.614 1.62-6.222 2.159-3.58.54-7.898.54v-9.062q3.352 0 5.086-.881 1.76-.852 2.386-2.671.625-1.789.625-4.517v-8.295q0-2.188.795-4.119.796-1.96 2.955-3.438 2.159-1.506 6.165-2.358 4.005-.88 10.397-.881m-28.409-35.681q4.319 0 7.898.54 3.608.54 6.222 2.159 2.642 1.618 4.091 4.801 1.477 3.153 1.477 8.409v6.278q0 4.376 1.903 6.335 1.932 1.96 6.818 1.961v5.71q-6.392 0-10.397-.852-4.006-.882-6.165-2.358-2.16-1.506-2.955-3.438a10.9 10.9 0 0 1-.795-4.119v-8.296q0-2.756-.625-4.545-.625-1.818-2.386-2.671-1.734-.88-5.086-.88zm28.409 30.483v10.909h-10.198v-10.909z"/></svg>