<svg xmlns="http://www.w3.org/2000/svg" width="48" height="48" viewBox="0 0 256 256"><path fill="#639" d="M196 0H0v196c0 33.137 26.863 60 60 60h136c33.137 0 60-26.863 60-60V60c0-33.137-26.863-60-60-60"/><path fill="#fff" d="M209.034 235.494c-8.292 0-14.633-2.411-19.072-7.257-4.39-4.872-6.676-11.822-6.881-20.9h17.869c.102 8.028 2.923 12.052 8.468 12.052 2.826 0 4.828-.896 5.983-2.667 1.129-1.766 1.72-4.59 1.72-8.461 0-3.077-.77-5.642-2.26-7.667a18.74 18.74 0 0 0-7.547-5.412L200.691 192c-5.903-2.821-10.191-6.154-12.836-10.053-2.567-3.873-3.85-9.308-3.85-16.256 0-7.772 2.261-14.08 6.751-18.929 4.621-4.846 10.911-7.255 18.944-7.255 7.757 0 13.762 2.384 17.997 7.127 4.313 4.772 6.571 11.592 6.753 20.516h-17.201a18.5 18.5 0 0 0-1.72-8.463q-1.461-2.92-5.699-2.921c-5.03 0-7.546 2.998-7.546 8.973 0 3.028.614 5.386 1.848 7.18a16.7 16.7 0 0 0 6.495 4.465l6.341 2.796c6.546 3 11.269 6.668 14.169 11.105 2.926 4.411 4.365 10.309 4.365 17.695 0 8.847-2.312 15.641-7.009 20.385-4.672 4.743-11.167 7.129-19.456 7.129zm-57.707 0c-8.295 0-14.633-2.411-19.075-7.257-4.39-4.872-6.674-11.822-6.879-20.9h17.867c.102 8.028 2.926 12.052 8.473 12.052 2.821 0 4.823-.896 5.952-2.667 1.157-1.766 1.721-4.59 1.721-8.461 0-3.077-.743-5.642-2.233-7.667a18.7 18.7 0 0 0-7.547-5.412L142.984 192c-5.906-2.821-10.192-6.154-12.836-10.053-2.568-3.873-3.85-9.308-3.85-16.256 0-7.772 2.258-14.08 6.75-18.929 4.621-4.846 10.911-7.255 18.944-7.255 7.755 0 13.76 2.384 17.972 7.127 4.364 4.772 6.597 11.592 6.776 20.516h-17.198a18.5 18.5 0 0 0-1.721-8.463q-1.462-2.92-5.698-2.921c-5.033 0-7.55 2.998-7.55 8.973 0 3.028.617 5.386 1.849 7.18a16.7 16.7 0 0 0 6.494 4.465l6.342 2.796c6.546 3 11.269 6.668 14.172 11.105 2.9 4.411 4.362 10.309 4.362 17.695q0 13.27-7.007 20.385c-4.672 4.743-11.166 7.129-19.458 7.129m-60.096 0q-12.17 0-19.331-6.617c-4.774-4.383-7.137-10.975-7.137-19.694V166.1c0-8.665 2.516-15.232 7.547-19.745 5.11-4.462 11.809-6.717 20.101-6.717 8.036 0 14.374 2.306 19.072 6.871 4.751 4.59 7.137 11.412 7.137 20.516v3.41H99.702v-3.308c0-3.512-.771-6.103-2.261-7.795a6.78 6.78 0 0 0-5.545-2.642c-3.079 0-5.26 1.05-6.494 3.179a20.2 20.2 0 0 0-1.721 9.385v37.443c0 7.821 2.75 11.796 8.218 11.873 2.565 0 4.49-.924 5.826-2.77a13.25 13.25 0 0 0 1.977-7.797v-2.793h18.918v2.923c0 6.078-1.18 11.154-3.568 15.207a22.74 22.74 0 0 1-9.78 9.128 31.1 31.1 0 0 1-14.041 3.026"/></svg>