<svg xmlns="http://www.w3.org/2000/svg" width="48" height="48" fill="none" viewBox="0 0 256 256"><path fill="#242938" d="M196 0H60C26.863 0 0 26.863 0 60v136c0 33.137 26.863 60 60 60h136c33.137 0 60-26.863 60-60V60c0-33.137-26.863-60-60-60"/><path fill="url(#a)" d="M207.209 98.26c-3.738-9.005-11.32-18.729-17.258-21.803a89.6 89.6 0 0 1 8.712 26.138l.016.144c-9.727-24.27-26.215-34.072-39.688-55.386a106 106 0 0 1-2.027-3.299 27 27 0 0 1-.947-1.778 15.6 15.6 0 0 1-1.283-3.411.225.225 0 0 0-.196-.223.3.3 0 0 0-.162 0c-.011 0-.029.02-.042.025-.013.004-.042.024-.062.033l.033-.058c-21.608 12.67-28.944 36.117-29.61 47.853a43 43 0 0 0-23.684 9.136 26 26 0 0 0-2.22-1.684 40 40 0 0 1-.242-21.055 63.7 63.7 0 0 0-20.707 16.025h-.04c-3.41-4.327-3.17-18.596-2.975-21.577a15.4 15.4 0 0 0-2.872 1.527 62.7 62.7 0 0 0-8.408 7.212 75 75 0 0 0-8.042 9.662v.013-.015a72.8 72.8 0 0 0-11.542 26.093l-.116.569c-.162.758-.745 4.554-.845 5.378 0 .065-.014.125-.02.189a82 82 0 0 0-1.396 11.876v.444a86.2 86.2 0 0 0 22.721 58.177 86 86 0 0 0 56.012 27.507 85.96 85.96 0 0 0 59.851-17.626 86.17 86.17 0 0 0 32.22-53.491c.144-1.111.262-2.212.39-3.334a88.7 88.7 0 0 0-5.58-43.273zm-99.153 67.434c.402.193.779.402 1.192.586l.06.038q-.626-.3-1.252-.624m90.625-62.93v-.082l.016.091z"/><path fill="url(#b)" d="M207.209 98.261c-3.738-9.006-11.321-18.73-17.258-21.803a89.6 89.6 0 0 1 8.712 26.137v.082l.016.091a78.1 78.1 0 0 1-2.677 58.143c-9.86 21.183-33.717 42.895-71.074 41.829-40.354-1.145-75.913-31.139-82.55-70.411-1.21-6.195 0-9.335.608-14.369a64.3 64.3 0 0 0-1.383 11.886v.444a86.2 86.2 0 0 0 22.722 58.177 86 86 0 0 0 56.011 27.507 85.95 85.95 0 0 0 59.851-17.626 86.16 86.16 0 0 0 32.22-53.491c.145-1.111.262-2.211.391-3.334a88.7 88.7 0 0 0-5.58-43.273z"/><path fill="url(#c)" d="M207.209 98.261c-3.738-9.006-11.321-18.73-17.258-21.803a89.6 89.6 0 0 1 8.712 26.137v.082l.016.091a78.1 78.1 0 0 1-2.677 58.143c-9.86 21.183-33.717 42.895-71.074 41.829-40.354-1.145-75.913-31.139-82.55-70.411-1.21-6.195 0-9.335.608-14.369a64.3 64.3 0 0 0-1.383 11.886v.444a86.2 86.2 0 0 0 22.722 58.177 86 86 0 0 0 56.011 27.507 85.95 85.95 0 0 0 59.851-17.626 86.16 86.16 0 0 0 32.22-53.491c.145-1.111.262-2.211.391-3.334a88.7 88.7 0 0 0-5.58-43.273z"/><path fill="url(#d)" d="M165.39 108.374c.187.131.36.262.535.393a46.9 46.9 0 0 0-7.991-10.435c-26.747-26.782-7.007-58.053-3.68-59.654l.033-.049c-21.608 12.67-28.944 36.117-29.61 47.852 1.003-.069 1.998-.153 3.023-.153a43.4 43.4 0 0 1 21.812 5.933 43.45 43.45 0 0 1 15.878 16.108z"/><path fill="url(#e)" d="M127.744 113.73c-.142 2.143-7.702 9.533-10.345 9.533-24.461 0-28.434 14.818-28.434 14.818 1.083 12.477 9.766 22.759 20.263 28.182.479.249.965.473 1.452.693q1.263.56 2.526 1.036a38.2 38.2 0 0 0 11.193 2.162c42.885 2.014 51.186-51.341 20.242-66.832a29.67 29.67 0 0 1 20.742 5.043 43.44 43.44 0 0 0-15.877-16.108 43.4 43.4 0 0 0-21.813-5.934c-1.021 0-2.02.085-3.023.154a43 43 0 0 0-23.684 9.137c1.312 1.111 2.793 2.596 5.911 5.674 5.838 5.759 20.81 11.724 20.843 12.424z"/><path fill="url(#f)" d="M127.744 113.73c-.142 2.143-7.702 9.533-10.345 9.533-24.461 0-28.434 14.818-28.434 14.818 1.083 12.477 9.766 22.759 20.263 28.182.479.249.965.473 1.452.693q1.263.56 2.526 1.036a38.2 38.2 0 0 0 11.193 2.162c42.885 2.014 51.186-51.341 20.242-66.832a29.67 29.67 0 0 1 20.742 5.043 43.44 43.44 0 0 0-15.877-16.108 43.4 43.4 0 0 0-21.813-5.934c-1.021 0-2.02.085-3.023.154a43 43 0 0 0-23.684 9.137c1.312 1.111 2.793 2.596 5.911 5.674 5.838 5.759 20.81 11.724 20.843 12.424z"/><path fill="url(#g)" d="M96.98 92.771a55 55 0 0 1 1.775 1.18 40 40 0 0 1-.242-21.054 63.7 63.7 0 0 0-20.707 16.025c.42-.011 12.899-.236 19.174 3.85"/><path fill="url(#h)" d="M42.362 132.333c6.64 39.273 42.196 69.278 82.55 70.411 37.357 1.058 61.219-20.656 71.074-41.829a78.1 78.1 0 0 0 2.677-58.142v-.082c0-.065-.013-.103 0-.083l.016.145c3.052 19.952-7.083 39.273-22.93 52.364l-.048.111c-30.876 25.182-60.42 15.189-66.391 11.113q-.626-.3-1.252-.625c-18-8.614-25.437-25.026-23.84-39.117a22.07 22.07 0 0 1-12.088-3.394 22.1 22.1 0 0 1-8.29-9.441 32.42 32.42 0 0 1 31.63-1.272 42.8 42.8 0 0 0 32.297 1.272c-.034-.701-15.005-6.668-20.843-12.425-3.119-3.078-4.599-4.56-5.911-5.674a26 26 0 0 0-2.22-1.685 121 121 0 0 0-1.776-1.18c-6.274-4.085-18.754-3.86-19.166-3.85h-.04c-3.41-4.327-3.17-18.595-2.975-21.576a15.4 15.4 0 0 0-2.872 1.527 62.7 62.7 0 0 0-8.408 7.212 75 75 0 0 0-8.075 9.64 72.8 72.8 0 0 0-11.543 26.09c-.042.176-3.098 13.556-1.591 20.495z"/><path fill="url(#i)" d="M157.932 98.328a46.9 46.9 0 0 1 7.991 10.446c.473.358.914.713 1.289 1.058 19.505 18.003 9.285 43.451 8.524 45.251 15.844-13.071 25.97-32.405 22.929-52.363-9.731-24.293-26.236-34.095-39.688-55.41a106 106 0 0 1-2.026-3.297 27 27 0 0 1-.948-1.779 15.7 15.7 0 0 1-1.283-3.411.22.22 0 0 0-.195-.223.3.3 0 0 0-.162 0c-.011 0-.029.02-.042.025-.014.004-.043.024-.063.033-3.327 1.58-23.062 32.872 3.685 59.632z"/><path fill="url(#j)" d="M167.21 109.841c-.375-.345-.817-.7-1.289-1.058-.176-.131-.349-.263-.535-.394a29.67 29.67 0 0 0-20.743-5.043c30.942 15.492 22.64 68.833-20.241 66.833a38.2 38.2 0 0 1-11.194-2.162 46 46 0 0 1-2.526-1.036 32 32 0 0 1-1.452-.694l.06.038c5.98 4.087 35.515 14.073 66.391-11.113l.048-.111c.771-1.8 10.99-27.249-8.523-45.251z"/><path fill="url(#k)" d="M88.967 138.067s3.97-14.818 28.434-14.818c2.643 0 10.21-7.39 10.346-9.532a42.8 42.8 0 0 1-32.297-1.272 32.42 32.42 0 0 0-31.63 1.272 22.1 22.1 0 0 0 8.29 9.441 22.07 22.07 0 0 0 12.089 3.394c-1.594 14.085 5.842 30.494 23.839 39.117.402.194.779.403 1.192.587-10.505-5.434-19.18-15.711-20.263-28.182z"/><path fill="url(#l)" d="M207.209 98.26c-3.738-9.005-11.32-18.729-17.258-21.803a89.6 89.6 0 0 1 8.712 26.138l.016.144c-9.727-24.27-26.215-34.072-39.688-55.386a106 106 0 0 1-2.027-3.299 27 27 0 0 1-.947-1.778 15.6 15.6 0 0 1-1.283-3.411.225.225 0 0 0-.196-.223.3.3 0 0 0-.162 0c-.011 0-.029.02-.042.025-.013.004-.042.024-.062.033l.033-.058c-21.608 12.67-28.944 36.117-29.61 47.853 1.003-.07 1.998-.154 3.023-.154a43.4 43.4 0 0 1 21.812 5.934 43.45 43.45 0 0 1 15.878 16.107 29.67 29.67 0 0 0-20.743-5.043c30.943 15.492 22.641 68.833-20.241 66.833a38.2 38.2 0 0 1-11.194-2.162 46 46 0 0 1-2.526-1.036 32 32 0 0 1-1.451-.694l.06.038q-.627-.3-1.252-.624c.401.193.779.402 1.192.586-10.506-5.436-19.18-15.713-20.264-28.182 0 0 3.971-14.818 28.434-14.818 2.644 0 10.211-7.39 10.346-9.532-.033-.7-15.005-6.668-20.843-12.424-3.118-3.079-4.599-4.561-5.911-5.675a26 26 0 0 0-2.22-1.684 40 40 0 0 1-.241-21.055 63.7 63.7 0 0 0-20.708 16.025h-.04c-3.409-4.327-3.17-18.596-2.974-21.577a15.4 15.4 0 0 0-2.872 1.527 62.7 62.7 0 0 0-8.408 7.212 75 75 0 0 0-8.042 9.662 72.8 72.8 0 0 0-11.542 26.091l-.116.569c-.162.757-.888 4.607-.992 5.434a100 100 0 0 0-1.27 12.008v.445a86.2 86.2 0 0 0 22.722 58.177 86 86 0 0 0 56.011 27.507 85.96 85.96 0 0 0 59.851-17.626 86.16 86.16 0 0 0 32.22-53.491c.145-1.112.262-2.212.391-3.334a88.7 88.7 0 0 0-5.58-43.274z"/><defs><radialGradient id="b" cx="0" cy="0" r="1" gradientTransform="matrix(179.35 0 0 179.584 190.295 58.633)" gradientUnits="userSpaceOnUse"><stop offset=".129" stop-color="#FFBD4F"/><stop offset=".186" stop-color="#FFAC31"/><stop offset=".247" stop-color="#FF9D17"/><stop offset=".283" stop-color="#FF980E"/><stop offset=".403" stop-color="#FF563B"/><stop offset=".467" stop-color="#FF3750"/><stop offset=".71" stop-color="#F5156C"/><stop offset=".782" stop-color="#EB0878"/><stop offset=".86" stop-color="#E50080"/></radialGradient><radialGradient id="c" cx="0" cy="0" r="1" gradientTransform="matrix(179.35 0 0 179.584 123.705 131.977)" gradientUnits="userSpaceOnUse"><stop offset=".3" stop-color="#960E18"/><stop offset=".351" stop-color="#B11927" stop-opacity=".74"/><stop offset=".435" stop-color="#DB293D" stop-opacity=".343"/><stop offset=".497" stop-color="#F5334B" stop-opacity=".094"/><stop offset=".53" stop-color="#FF3750" stop-opacity="0"/></radialGradient><radialGradient id="d" cx="0" cy="0" r="1" gradientTransform="matrix(129.918 0 0 130.087 145.901 18.626)" gradientUnits="userSpaceOnUse"><stop offset=".132" stop-color="#FFF44F"/><stop offset=".252" stop-color="#FFDC3E"/><stop offset=".506" stop-color="#FF9D12"/><stop offset=".526" stop-color="#FF980E"/></radialGradient><radialGradient id="e" cx="0" cy="0" r="1" gradientTransform="matrix(85.3909 0 0 85.5024 103.728 178.651)" gradientUnits="userSpaceOnUse"><stop offset=".353" stop-color="#3A8EE6"/><stop offset=".472" stop-color="#5C79F0"/><stop offset=".669" stop-color="#9059FF"/><stop offset="1" stop-color="#C139E6"/></radialGradient><radialGradient id="f" cx="0" cy="0" r="1" gradientTransform="matrix(44.01346 -10.65497 12.4888 51.58865 132.379 116.562)" gradientUnits="userSpaceOnUse"><stop offset=".206" stop-color="#9059FF" stop-opacity="0"/><stop offset=".278" stop-color="#8C4FF3" stop-opacity=".064"/><stop offset=".747" stop-color="#7716A8" stop-opacity=".45"/><stop offset=".975" stop-color="#6E008B" stop-opacity=".6"/></radialGradient><radialGradient id="g" cx="0" cy="0" r="1" gradientTransform="matrix(61.4406 0 0 61.5208 121.485 51.965)" gradientUnits="userSpaceOnUse"><stop stop-color="#FFE226"/><stop offset=".121" stop-color="#FFDB27"/><stop offset=".295" stop-color="#FFC82A"/><stop offset=".502" stop-color="#FFA930"/><stop offset=".732" stop-color="#FF7E37"/><stop offset=".792" stop-color="#FF7139"/></radialGradient><radialGradient id="h" cx="0" cy="0" r="1" gradientTransform="matrix(262.144 0 0 262.486 170.318 11.959)" gradientUnits="userSpaceOnUse"><stop offset=".113" stop-color="#FFF44F"/><stop offset=".456" stop-color="#FF980E"/><stop offset=".622" stop-color="#FF5634"/><stop offset=".716" stop-color="#FF3647"/><stop offset=".904" stop-color="#E31587"/></radialGradient><radialGradient id="i" cx="0" cy="0" r="1" gradientTransform="rotate(83.984 59.538 95.759)scale(192.351 126.077)" gradientUnits="userSpaceOnUse"><stop stop-color="#FFF44F"/><stop offset=".06" stop-color="#FFE847"/><stop offset=".168" stop-color="#FFC830"/><stop offset=".304" stop-color="#FF980E"/><stop offset=".356" stop-color="#FF8B16"/><stop offset=".455" stop-color="#FF672A"/><stop offset=".57" stop-color="#FF3647"/><stop offset=".737" stop-color="#E31587"/></radialGradient><radialGradient id="j" cx="0" cy="0" r="1" gradientTransform="matrix(163.634 0 0 163.848 121.485 74.19)" gradientUnits="userSpaceOnUse"><stop offset=".137" stop-color="#FFF44F"/><stop offset=".48" stop-color="#FF980E"/><stop offset=".592" stop-color="#FF5634"/><stop offset=".655" stop-color="#FF3647"/><stop offset=".904" stop-color="#E31587"/></radialGradient><radialGradient id="k" cx="0" cy="0" r="1" gradientTransform="matrix(179.106 0 0 179.339 163.659 83.08)" gradientUnits="userSpaceOnUse"><stop offset=".094" stop-color="#FFF44F"/><stop offset=".231" stop-color="#FFE141"/><stop offset=".509" stop-color="#FFAF1E"/><stop offset=".626" stop-color="#FF980E"/></radialGradient><linearGradient id="a" x1="195.822" x2="52.822" y1="66.158" y2="203.949" gradientUnits="userSpaceOnUse"><stop offset=".048" stop-color="#FFF44F"/><stop offset=".111" stop-color="#FFE847"/><stop offset=".225" stop-color="#FFC830"/><stop offset=".368" stop-color="#FF980E"/><stop offset=".401" stop-color="#FF8B16"/><stop offset=".462" stop-color="#FF672A"/><stop offset=".534" stop-color="#FF3647"/><stop offset=".705" stop-color="#E31587"/></linearGradient><linearGradient id="l" x1="194.091" x2="72.427" y1="65.424" y2="186.951" gradientUnits="userSpaceOnUse"><stop offset=".167" stop-color="#FFF44F" stop-opacity=".8"/><stop offset=".266" stop-color="#FFF44F" stop-opacity=".634"/><stop offset=".489" stop-color="#FFF44F" stop-opacity=".217"/><stop offset=".6" stop-color="#FFF44F" stop-opacity="0"/></linearGradient></defs></svg>