<svg xmlns="http://www.w3.org/2000/svg" width="48" height="48" fill="none" viewBox="0 0 256 256"><path fill="#242938" d="M196 0H60C26.863 0 0 26.863 0 60v136c0 33.137 26.863 60 60 60h136c33.137 0 60-26.863 60-60V60c0-33.137-26.863-60-60-60"/><path fill="#FF9100" d="M98.724 219.774a77.7 77.7 0 0 0 26.358 5.568 77.5 77.5 0 0 0 35.304-7.116 110 110 0 0 1-34.417-21.609c-6.438 10.308-15.959 18.449-27.245 23.157"/><path fill="#FFC400" d="M125.967 196.619c-22.67-20.967-36.423-51.314-35.26-84.599.037-1.081.094-2.161.16-3.241a58.7 58.7 0 0 0-30.66.321 77.4 77.4 0 0 0-10.159 35.792c-1.174 33.624 19.174 63.003 48.674 74.884a58.88 58.88 0 0 0 27.245-23.157"/><path fill="#FF9100" d="M125.968 196.619c5.271-8.435 8.467-18.324 8.839-28.978.978-28.026-17.862-52.135-43.938-58.863-.067 1.08-.124 2.16-.162 3.241-1.162 33.286 12.59 63.633 35.261 84.6"/><path fill="#DD2C00" d="M131.891 30c-14.852 11.898-26.579 27.586-33.674 45.658a109.7 109.7 0 0 0-7.36 33.127c26.076 6.728 44.916 30.837 43.938 58.863a58.5 58.5 0 0 1-8.839 28.978 109.8 109.8 0 0 0 34.417 21.609c25.79-11.921 44.088-37.574 45.148-67.916.686-19.659-6.867-37.18-17.54-51.969C176.71 82.709 131.891 30 131.891 30"/></svg>