<svg xmlns="http://www.w3.org/2000/svg" width="48" height="48" fill="none" viewBox="0 0 256 256"><path fill="#242938" d="M196 0H60C26.863 0 0 26.863 0 60v136c0 33.137 26.863 60 60 60h136c33.137 0 60-26.863 60-60V60c0-33.137-26.863-60-60-60"/><path fill="#F1502F" d="m223.295 119.23-86.457-86.492A12.74 12.74 0 0 0 127.822 29a12.74 12.74 0 0 0-9.016 3.738L100.86 50.69l22.773 22.783c5.297-1.858 11.362-.589 15.581 3.633a15.17 15.17 0 0 1 3.596 15.682l21.95 21.959c5.31-1.832 11.436-.651 15.674 3.603a15.18 15.18 0 0 1 4.445 10.737 15.2 15.2 0 0 1-1.156 5.811 15.2 15.2 0 0 1-3.292 4.925 15.2 15.2 0 0 1-4.923 3.29 15.171 15.171 0 0 1-16.541-3.293c-4.455-4.458-5.556-11.02-3.304-16.512l-20.47-20.479v53.892a15.4 15.4 0 0 1 4.021 2.873 15.2 15.2 0 0 1 3.291 4.925 15.19 15.19 0 0 1-8.213 19.835 15.175 15.175 0 0 1-19.832-8.214 15.18 15.18 0 0 1 3.293-16.546c1.467-1.461 3.095-2.57 4.97-3.313v-54.393a15.1 15.1 0 0 1-4.97-3.312 15.175 15.175 0 0 1-3.267-16.597L92.023 59.52l-59.284 59.246A12.76 12.76 0 0 0 29 127.789a12.76 12.76 0 0 0 3.739 9.023l86.463 86.486a12.75 12.75 0 0 0 9.016 3.738 12.75 12.75 0 0 0 9.016-3.738l86.061-85.96a12.75 12.75 0 0 0 3.739-9.022 12.76 12.76 0 0 0-3.739-9.024"/></svg>