<svg xmlns="http://www.w3.org/2000/svg" width="48" height="48" viewBox="0 0 256 256"><path fill="#8a4182" d="M196 0H60C26.863 0 0 26.863 0 60v136c0 33.137 26.863 60 60 60h136c33.137 0 60-26.863 60-60V60c0-33.137-26.863-60-60-60"/><g fill="#fff"><path d="M136.49 106.598h-17.85l-4.821-6.211V51.68h27.191v48.706zm-24.146 4.545-5.521 17.005-7.375 2.67-46.27-15.054 8.414-25.887 46.252 15.036zm-3.177 23.936 14.447 10.51.246 7.84-28.572 39.427-22.01-16.002 28.61-39.426zm22.162 10.586 14.465-10.51 7.526 2.197 28.59 39.408-21.99 16.002-28.591-39.408zm17.17-17.232-5.522-17.025 4.406-6.495 46.25-15.036 8.415 25.887-46.27 15.055z"/><path d="M128 9.47a118.351 118.527 0 1 0 118.352 118.527A118.351 118.527 0 0 0 128.001 9.47m-.642 211.148a93.6 93.738 0 1 1 93.6-93.738 93.6 93.738 0 0 1-93.6 93.757z"/><path d="M123.425 163.958h7.412v36.946h-7.412zm40.197-22.8 2.29-7.06 35.085 11.418-2.29 7.06zm-9.614-45.236-5.996-4.364 21.683-29.89 5.998 4.363zm-46.142-4.362-5.997 4.363-21.683-29.888 5.996-4.363zM89.04 134.102l2.29 7.06-35.086 11.417-2.29-7.06z"/></g></svg>