<svg xmlns="http://www.w3.org/2000/svg" width="48" height="48" fill="none" viewBox="0 0 256 256"><path fill="#242938" d="M196 0H60C26.863 0 0 26.863 0 60v136c0 33.137 26.863 60 60 60h136c33.137 0 60-26.863 60-60V60c0-33.137-26.863-60-60-60"/><path fill="#409B83" d="m146.469 163.575 27.291 52.621h43.137l-48.885-93.366zm-86.963 28.216 19.98-24.332 31.946 48.737-20.506-97.761-17.313 36.813z"/><path fill="#56C5A8" d="m59.506 191.789 31.42-73.361-19.974 24.347L39 94.034zm153.28-152.245h-43.137l-26.422 50.459v-50.46h-39.574v52.331l21.099 100.517 4.915 23.804h13.559v-44.162z"/></svg>