<svg xmlns="http://www.w3.org/2000/svg" width="48" height="48" fill="none" viewBox="0 0 256 256"><rect width="256" height="256" fill="#242938" rx="60"/><path fill="#002B64" d="M223.611 62.004c-3.091.098-2.113.989-8.792 2.633-6.744 1.66-14.983 1.15-22.245 4.196-21.681 9.093-26.031 40.169-45.74 51.301-14.733 8.322-29.597 8.986-42.96 13.173-8.782 2.754-18.389 8.401-26.345 15.258-6.177 5.324-6.338 10.006-12.791 16.684-6.902 7.142-27.433.12-36.738 11.052 2.997 3.031 4.312 3.88 10.218 3.094-1.223 2.318-8.432 4.271-7.02 7.681 1.484 3.588 18.913 6.02 34.756-3.545 7.379-4.455 13.256-10.876 24.747-12.409 14.871-1.982 32.001 1.272 49.216 3.754-2.553 7.611-7.677 12.673-11.783 18.734-1.271 1.369 2.554 1.523 6.917.695 7.849-1.941 13.505-3.503 19.429-6.951 7.277-4.237 8.38-15.098 17.309-17.448 4.975 7.646 18.506 9.453 26.902 3.337-7.368-2.086-9.404-17.768-6.917-24.678 2.356-6.541 4.683-17.004 7.056-25.65 2.547-9.286 3.486-20.99 6.569-25.72 4.637-7.117 9.762-9.56 14.211-13.573s8.52-7.92 8.387-17.102c-.043-2.958-1.572-4.606-4.386-4.516"/><path fill="#C49A6C" d="M216.989 67.444c.74 2.525 1.899 3.684 6.91 4.147-.732 6.352-4.97 9.827-9.72 13.16-4.181 2.932-8.761 5.756-11.704 10.335-3.015 4.692-4.929 20.75-9.605 36.608-4.041 13.702-10.143 27.25-20.8 33.186-1.114-2.802.142-7.974-2.073-9.674-1.433 4.086-3.053 7.985-4.95 11.609-6.254 11.953-15.512 20.902-30.984 23.634 7.341-9.934 14.361-20.193 14.513-37.315-5.167 1.118-5.057 13.322-10.366 16.585-3.403.37-6.851.368-10.321.159-14.25-.854-28.868-5.136-42.198-.859-9.077 2.913-16.5 9.785-24.186 13.119-9.034 3.918-15.875 5.529-27.124 3.918-1.428-1.924 8.233-4.407 7.655-8.585-4.403-.487-6.959.58-10.786-1.159.423-.778 1.044-1.427 1.826-1.967 7.014-4.855 26.937-1.147 32.269-6.382 3.291-3.229 5.45-6.609 7.686-9.895 2.168-3.188 4.41-6.288 7.824-9.081a59 59 0 0 1 4.086-3.045c5.819-3.983 13.017-7.594 20.101-10.084 9.65-3.392 19.428-3.672 29.714-7.602 6.354-2.428 13.264-5.428 18.896-9.625a38 38 0 0 0 3.773-3.202c16.083-15.678 19.271-43.334 44.363-45.912 3.034-.311 5.519-.21 7.78-.279 2.606-.078 4.912-.38 7.421-1.794m-30.59 88.515c.3 4.793 3.082 14.302 5.538 16.613-4.81 1.17-13.097-.763-15.223-4.157 1.092-4.899 6.777-9.378 9.685-12.456"/><path fill="#002B64" d="M218.796 72.81c-.967 2.029-2.819 4.644-2.819 9.808-.008.886-.673 1.494-.684.127.05-5.047 1.386-7.229 2.805-10.096.659-1.175 1.057-.69.698.161m-.974-.764c-1.141 1.936-3.888 5.466-4.342 10.61-.084.883-.801 1.429-.692.065.494-5.022 2.69-8.165 4.356-10.897.756-1.112 1.112-.594.678.222m-.888-1.012c-1.3 1.832-5.528 6.072-6.412 11.16-.159.871-.92 1.357-.696.007.915-4.964 4.56-8.865 6.45-11.445.847-1.046 1.157-.5.658.278m-.792-1.13-.428.455c-1.89 2.027-6.283 6.971-7.746 11.496-.282.84-1.103 1.215-.691-.09 1.603-4.787 6.018-9.941 8.252-12.23.986-.916 1.216-.331.613.37M193.447 80.15c.979-4.208 4.252-6.125 9.902-5.657 1.363 6.28-6.266 8.814-9.902 5.657"/></svg>