<svg xmlns="http://www.w3.org/2000/svg" width="48" height="48" fill="none" viewBox="0 0 256 256"><rect width="256" height="256" fill="#242938" rx="60"/><path fill="#696969" d="M64.249 67.646H191.75a6.25 6.25 0 0 1 0 12.497H64.249a6.249 6.249 0 1 1 0-12.498"/><path fill="#009FE3" d="M65.36 55h25.636v5.916H65.36z"/><path fill="#C7D302" d="M98.885 55h25.635v5.916H98.885z"/><path fill="#F07E16" d="M131.965 55h25.636v5.916h-25.636z"/><path fill="#DF2815" d="M164.906 55h25.636v5.916h-25.636zM164.906 86.65h25.636v43.336h-25.636z"/><path fill="#F07E16" d="M131.965 86.65h25.684v70.402h-25.684z"/><path fill="#C7D302" d="M98.885 86.65h25.634v105.454H98.884z"/><path fill="#009FE3" d="M65.36 86.65h25.636v128.527H65.36z"/></svg>