<svg xmlns="http://www.w3.org/2000/svg" width="48" height="48" fill="none" viewBox="0 0 256 256"><g clip-path="url(#a)"><path fill="#242938" d="M196 0H60C26.863 0 0 26.863 0 60v136c0 33.137 26.863 60 60 60h136c33.137 0 60-26.863 60-60V60c0-33.137-26.863-60-60-60"/><path fill="#FCFCFC" d="M30.16 148.284c-1.373-.218-4.89-1.098-7.801-1.894l-5.305-1.485 2.72-5.001 2.72-5-2.197-2.721c-3.106-3.846-7.116-12.279-7.143-14.996-.028-6.349 8.213-15.551 18.323-20.496 6.95-3.406 12.472-3.488 19.396-.246l5.219 2.443 1.511-2.168c.823-1.183 1.51-2.748 1.51-3.435 0-.688.688-1.291 1.512-1.291s1.51.219 1.51.466c0 .606-6.07 15.934-6.455 16.318-.165.164-1.814-.603-3.682-1.702-5.274-3.106-11.895-5.166-17.032-5.303-11.95-.303-16.1 11.375-7.664 21.592l2.966 3.601 8.104-6.567c9.094-7.335 10.138-7.5 17.227-2.609 7.964 5.494 8.101 13.845.409 22.581-6.813 7.774-13.816 9.918-25.85 7.911zm20.385-8.377c3.955-3.104 3.68-8.847-.605-13.407-5.385-5.714-7.059-5.467-16.537 2.445-9.424 7.856-9.479 7.555 1.786 11.154 7.443 2.416 12.114 2.334 15.356-.192m76.537 30.273c-2.694-.988-9.947-3.984-16.154-6.676-16.758-7.308-19.121-7.445-24.121-1.373-1.154 1.402-2.416 2.279-2.775 1.923-1.072-1.072 2.116-6.209 5.962-9.587 3.13-2.747 4.174-3.132 7.638-2.747 2.197.245 9.505 2.802 16.234 5.659 15.193 6.454 19.642 7.829 25.44 7.829 7.059 0 10.686-4.945 8.46-11.51-.548-1.649-.384-2.199.716-2.199 2.059 0 3.104 7.692 1.621 12.115-.635 1.895-2.474 4.587-4.094 5.934-2.418 2.033-3.957 2.473-8.491 2.444-3.048-.026-7.743-.822-10.436-1.812m-39.148-23.487c-6.236-2.914-11.868-8.462-15.111-14.946-5.19-10.384-3.599-17.032 6.238-26.015 8.267-7.556 15.027-10.496 24.121-10.496 6.563 0 7.965.358 12.222 2.967 10.082 6.238 12.583 18.133 6.512 31.098-7.115 15.221-22.142 22.887-33.982 17.392m20.878-7.226c4.669-2.308 7.885-12.967 6.566-21.814-1.649-10.904-16.4-18.351-27.225-13.734-11.126 4.753-11.291 17.417-.356 28.817 7.635 7.995 14.203 10.082 21.015 6.731m21.182 9.231c0-.469 1.728-1.291 3.872-1.815l3.873-.962.825-13.953c.906-15.44.245-30.633-1.428-32.664-.606-.716-2.445-1.596-4.121-1.979-6.812-1.512-2.281-2.555 10.934-2.555s17.416.962 11.125 2.555c-5.411 1.346-5.44 1.428-5.44 23.461 0 12.224.44 21.428 1.072 22.609.88 1.649 2.198 2.005 7.253 2.005 10.438 0 14.037-2.472 16.868-11.621.851-2.746 3.049-2.25 2.28.524-.359 1.289-.933 5.217-1.291 8.789l-.659 6.457h-22.583c-12.418 0-22.58-.385-22.58-.851"/><path fill="#CA2727" d="M181.282 148.037c0-.823.798-1.647 2.116-2.279 1.759-.825 2.911-2.556 7.087-10.715 6.62-12.909 17.06-35.08 18.049-38.405.769-2.527.935-2.664 3.791-2.993 1.649-.193 3.021-.303 3.048-.248.029.055 2.31 5.053 5.084 11.126 2.748 6.07 8.27 17.609 12.28 25.631 6.704 13.488 7.447 14.697 9.697 15.794 1.375.661 2.445 1.678 2.445 2.281 0 .962-1.181 1.072-11.345 1.072-10.192 0-11.346-.11-11.346-1.098 0-.659.88-1.373 2.279-1.842 1.293-.411 2.281-1.18 2.281-1.757 0-.551-1.346-4.176-2.995-8.049l-2.993-7.06h-22.693l-2.169 4.779c-4.067 8.957-4.149 11.072-.358 12.087 1.897.522 2.418.935 2.197 1.786-.245.991-1.235 1.126-8.378 1.126-7.666.057-8.077 0-8.077-1.236m37.197-22.225c.384-.685-8.159-19.34-8.955-19.532-.577-.164-9.424 18.078-9.424 19.45 0 .688 17.967.77 18.379.082"/></g><defs><clipPath id="a"><path fill="#fff" d="M0 0h256v256H0z"/></clipPath></defs></svg>