<svg xmlns="http://www.w3.org/2000/svg" width="48" height="48" fill="none" viewBox="0 0 256 256"><g clip-path="url(#a)"><path fill="url(#b)" d="M58.088 0h139.824C229.993 0 256 26.007 256 58.088v139.824C256 229.993 229.993 256 197.912 256H58.088C26.007 256 0 229.993 0 197.912V58.088C0 26.007 26.007 0 58.088 0"/><path fill="#003B57" d="M246.309 36.623c-9.5-8.594-21.003-5.141-32.356 5.079-1.685 1.518-3.366 3.203-5.04 5.002-19.421 20.898-37.447 59.608-43.048 89.172 2.182 4.487 3.886 10.215 5.007 14.59.289 1.122.548 2.176.756 3.072.492 2.121.757 3.496.757 3.496s-.174-.669-.888-2.77a160 160 0 0 0-.467-1.361 16 16 0 0 0-.3-.751c-1.267-2.987-4.771-9.292-6.313-12.038a305 305 0 0 0-3.461 10.981c4.452 8.263 7.165 22.424 7.165 22.424s-.235-.917-1.353-4.12c-.994-2.834-5.941-11.627-7.114-13.681-2.004 7.506-2.8 12.574-2.082 13.808 1.394 2.391 2.722 6.517 3.889 11.079 2.635 10.279 4.466 22.791 4.466 22.791s.06.83.159 2.106c-.366 8.631-.147 17.58.513 25.669.872 10.707 2.516 19.906 4.611 24.829l1.421-.787c-3.076-9.698-4.325-22.409-3.778-37.068.827-22.406 5.911-49.427 15.303-77.59 15.868-42.515 37.884-76.626 58.034-92.916-18.366 16.824-43.222 71.282-50.663 91.448-8.33 22.583-14.235 43.775-17.793 64.079 6.139-19.034 25.989-27.217 25.989-27.217s9.736-12.178 21.113-29.578c-6.815 1.576-18.006 4.275-21.755 5.873-5.528 2.352-7.018 3.155-7.018 3.155s17.91-11.064 33.276-16.072c21.133-33.762 44.155-81.724 20.97-102.704M33.73 48.62c-2.992 0-5.426.888-7.292 2.663-1.866 1.776-2.812 4.104-2.812 6.957 0 1.478.235 2.826.698 4.061.463 1.238 1.184 2.385 2.153 3.42.969 1.037 2.908 2.446 5.799 4.237 3.547 2.17 5.868 3.93 6.982 5.305 1.115 1.374 1.668 2.814 1.668 4.315 0 2.01-.66 3.613-2.017 4.82-1.36 1.205-3.177 1.806-5.43 1.806-2.378 0-4.448-.84-6.226-2.506-1.779-1.67-2.676-3.879-2.696-6.647H23.45v10.047h1.106c.337-.951.804-1.438 1.416-1.438.294 0 .982.204 2.055.583 2.61.93 4.755 1.38 6.44 1.38 2.903 0 5.382-1.019 7.447-3.09 2.062-2.07 3.103-4.567 3.103-7.482 0-2.26-.687-4.271-2.036-6.024-1.35-1.755-3.973-3.797-7.894-6.141-3.374-2.031-5.564-3.685-6.575-4.975-1.012-1.288-1.532-2.712-1.532-4.275 0-1.691.62-3.05 1.843-4.062 1.222-1.014 2.824-1.516 4.829-1.516 2.256 0 4.136.671 5.624 2.021 1.487 1.353 2.346 3.227 2.6 5.636h1.105v-8.706h-1.028q-.188.665-.35.855-.154.192-.6.194c-.358 0-.996-.15-1.901-.447-1.94-.654-3.728-.99-5.373-.99m36.133 0c-3.647 0-6.958.861-9.95 2.585-2.995 1.72-5.367 4.109-7.117 7.151s-2.619 6.274-2.619 9.717c0 4.626 1.512 8.747 4.558 12.36 3.048 3.61 6.7 5.86 10.939 6.724.969.505 2.355 1.811 4.17 3.925 2.045 2.386 3.775 4.106 5.198 5.13a15.6 15.6 0 0 0 4.577 2.274c1.623.496 3.378.739 5.275.739 2.298 0 4.356-.4 6.168-1.225l-.407-1.01a9.8 9.8 0 0 1-3.356.564c-1.603 0-3.224-.53-4.848-1.594-1.623-1.066-3.651-3.1-6.071-6.102-1.137-1.438-1.922-2.346-2.366-2.701 4.637-.908 8.45-3.16 11.423-6.763s4.461-7.714 4.461-12.321c0-5.47-1.942-10.069-5.799-13.817-3.86-3.75-8.606-5.636-14.236-5.636m22.557 0 .058 1.186c2.428 0 3.788.716 4.092 2.157.113.515.165 1.467.175 2.837l-.02 26.216q-.03 2.937-.834 3.75c-.536.539-1.442.876-2.754 1.01l-.058 1.186h24.205l.62-5.946h-1.105c-.315 1.62-1.039 2.78-2.191 3.44-1.156.663-3.198.99-6.149.99h-2.289c-2.654 0-4.19-.961-4.596-2.895a6 6 0 0 1-.116-1.244l.097-26.507c-.001-1.955.246-3.265.756-3.906.516-.64 1.446-.997 2.792-1.088l-.057-1.186zM70.25 50.058c4.113 0 7.472 1.623 10.066 4.897 2.594 3.276 3.88 7.764 3.88 13.448q.001 8.079-3.919 12.943c-2.613 3.243-6.092 4.858-10.415 4.858-4.153 0-7.52-1.665-10.105-5.013-2.581-3.349-3.86-7.695-3.86-13.04 0-5.493 1.294-9.89 3.9-13.176 2.603-3.283 6.09-4.917 10.453-4.917m55.664 5.636c-.59 0-1.041.2-1.377.602-.345.401-.45.887-.33 1.477.116.573.438 1.074.95 1.497.509.422 1.059.64 1.649.64.57 0 1.006-.218 1.319-.64s.407-.924.291-1.497c-.121-.59-.432-1.076-.912-1.477-.485-.402-1.02-.602-1.59-.602m15.962 4.023c-1.004 3.866-3.178 5.959-6.517 6.296l.038 1.108h3.899l-.077 13.098c.006 2.24.074 3.73.232 4.489.384 1.817 1.569 2.74 3.549 2.74q4.302 0 9.019-5.247l-.95-.816c-2.271 2.303-4.279 3.459-6.032 3.459-1.077 0-1.746-.62-1.998-1.846a4.7 4.7 0 0 1-.096-1.05l.039-14.827h5.953l-.058-1.769h-5.877v-5.635zm23.021 4.936c-3.33 0-6.039 1.62-8.145 4.839-2.096 3.224-2.745 6.796-1.92 10.727.485 2.302 1.45 4.086 2.928 5.344 1.476 1.257 3.348 1.885 5.585 1.885 2.085 0 4.987-.529 6.207-1.593 1.224-1.065 2.353-2.789 3.394-5.15l-.834-.875c-1.661 3.064-5.016 4.606-7.544 4.606-3.478 0-5.607-1.912-6.4-5.714a14 14 0 0 1-.234-1.554c4.137-.656 7.272-1.818 9.388-3.498 2.114-1.68 4.237-3.462 3.84-5.344a4.34 4.34 0 0 0-1.707-2.663c-.903-.664-3.248-1.01-4.558-1.01m-36.404.136-7.176 1.652v1.282l2.482-.31c1.203 0 1.91.545 2.134 1.632.075.363.122.874.136 1.516l-.078 11.757c-.02 1.627-.2 2.573-.562 2.856q-.548.428-2.89.428l-.039 1.108h11.385l-.02-1.108c-1.582 0-2.607-.125-3.064-.37-.449-.242-.758-.683-.892-1.36-.104-.487-.148-1.327-.155-2.487l.039-16.596zm34.582 2.176c.692 0 1.362.268 2.036.797.664.527 1.07 1.113 1.202 1.749.65 3.126-2.117 5.287-8.34 6.49-.178-2.278.217-4.347 1.223-6.218.997-1.868 2.297-2.818 3.879-2.818"/></g><defs><linearGradient id="b" x1="148.165" x2="148.165" y1="1.788" y2="244.961" gradientUnits="userSpaceOnUse"><stop stop-color="#97D9F6"/><stop offset=".92" stop-color="#0F80CC"/><stop offset="1" stop-color="#0F80CC"/></linearGradient><clipPath id="a"><path fill="#fff" d="M0 0h256v256H0z"/></clipPath></defs></svg>